<svg width="381" height="133" viewBox="0 0 381 133" fill="none" xmlns="http://www.w3.org/2000/svg">
<rect x="4" y="18" width="74" height="104.5" fill="#D30303" stroke="#D30303" stroke-width="3"/>
<rect x="81" y="18" width="298" height="104.5" fill="#271E1E" stroke="#271E1E" stroke-width="3"/>
<path d="M110.721 5.57125L112.313 8.12386L75.3329 28.3871L73.4562 26.224" fill="#D30303"/>
<path d="M111.026 6.33195C111.581 6.82358 111.494 7.79667 111.983 8.29786L111.026 6.33195ZM110.885 5.80983C111.182 6.62815 111.596 7.11482 111.998 8.4364L110.885 5.80983ZM111.987 8.62539C104.739 12.8074 97.1189 16.5262 75.1918 28.1251L111.987 8.62539ZM112.205 8.33886C104.155 12.9623 95.9415 17.2559 74.9697 28.3731L112.205 8.33886ZM74.926 28.6072C74.5706 27.7638 74.4381 26.2721 73.7598 25.5796L74.926 28.6072ZM75.1471 28.1179C74.4462 27.6064 74.0895 26.6918 73.7564 25.7132L75.1471 28.1179ZM73.8719 25.8191C88.3014 17.9394 103.187 10.0125 111.055 6.12482L73.8719 25.8191ZM73.6568 25.7425C83.2156 21.1289 92.7595 16.2467 110.777 6.10816L73.6568 25.7425Z" fill="#D30303"/>
<path d="M119.495 34.2094L118.691 37.5466L78.1925 35.8744L78.2922 32.8183" fill="#D30303"/>
<path d="M119.072 34.141C119.2 34.9442 119.21 35.845 119.027 37.9038L119.072 34.141ZM118.938 34.3119C119.007 34.9606 118.826 35.7135 118.91 37.6518L118.938 34.3119ZM119.105 37.5512C109.301 37.445 99.5583 36.9657 78.2088 36.3011L119.105 37.5512ZM118.922 37.4815C104.689 37.1589 90.7051 36.6815 78.0487 36.2953L118.922 37.4815ZM78.1632 36.0565C78.3303 35.0472 78.0188 34.0784 78.1159 33.0956L78.1632 36.0565ZM77.9472 36.2154C78.1508 35.2894 78.1381 33.9672 78.0374 33.1501L77.9472 36.2154ZM78.1869 32.7912C94.1833 34.1259 109.716 34.5853 118.878 34.0183L78.1869 32.7912ZM78.1619 33.0422C93.1213 33.8773 108.165 34.1704 119.195 34.1194L78.1619 33.0422Z" fill="#D30303"/>
<path d="M111.343 58.8369L109.853 61.668L73.1852 43.6839L74.563 41.167" fill="#D30303"/>
<path d="M111.511 58.626C110.624 59.5423 110.598 60.2749 109.765 61.3528L111.511 58.626ZM111.382 58.5115C110.782 59.5732 110.452 60.2792 109.78 61.4662L111.382 58.5115ZM109.957 61.8661C100.668 56.9637 92.2193 52.4394 73.1385 44.3331L109.957 61.8661ZM109.933 61.5546C101.583 57.4185 93.2236 53.5536 73.0392 44.0404L109.933 61.5546ZM72.5108 44.2346C73.3892 43.7425 73.4565 42.7106 74.6632 41.4933L72.5108 44.2346ZM72.9044 43.8243C73.5482 43.378 74.0222 42.5483 74.2463 41.103L72.9044 43.8243ZM74.6418 40.9027C81.9649 45.1458 89.8112 49.1666 111.175 58.47L74.6418 40.9027ZM74.3875 41.1435C85.1243 46.0217 95.3909 51.0495 111.318 58.5406L74.3875 41.1435Z" fill="#D30303"/>
<path d="M104.604 102.768C101.873 102.768 99.6333 102.341 97.884 101.488C96.1347 100.592 94.8333 99.4186 93.98 97.968C93.1267 96.5173 92.7 94.9173 92.7 93.168C92.7 90.224 93.852 87.8347 96.156 86C98.46 84.1653 101.916 83.248 106.524 83.248H114.588V82.48C114.588 80.304 113.969 78.704 112.732 77.68C111.495 76.656 109.959 76.144 108.124 76.144C106.46 76.144 105.009 76.5493 103.772 77.36C102.535 78.128 101.767 79.28 101.468 80.816H93.468C93.6813 78.512 94.4493 76.5067 95.772 74.8C97.1373 73.0933 98.8867 71.792 101.02 70.896C103.153 69.9573 105.543 69.488 108.188 69.488C112.711 69.488 116.273 70.6187 118.876 72.88C121.479 75.1413 122.78 78.3413 122.78 82.48V102H115.804L115.036 96.88C114.097 98.5867 112.775 99.9947 111.068 101.104C109.404 102.213 107.249 102.768 104.604 102.768ZM106.46 96.368C108.807 96.368 110.62 95.6 111.9 94.064C113.223 92.528 114.055 90.6293 114.396 88.368H107.42C105.244 88.368 103.687 88.7733 102.748 89.584C101.809 90.352 101.34 91.312 101.34 92.464C101.34 93.7013 101.809 94.6613 102.748 95.344C103.687 96.0267 104.924 96.368 106.46 96.368Z" fill="white"/>
<path d="M136.997 102V55.92H145.189V83.12L156.453 70.256H166.182L153.189 84.72L168.294 102H158.053L145.189 86.064V102H136.997Z" fill="white"/>
<path d="M192.572 102.768C189.372 102.768 186.534 102.085 184.06 100.72C181.585 99.3547 179.643 97.4347 178.235 94.96C176.827 92.4853 176.123 89.6267 176.123 86.384C176.123 83.0987 176.806 80.176 178.172 77.616C179.58 75.056 181.5 73.072 183.932 71.664C186.406 70.2133 189.307 69.488 192.635 69.488C195.75 69.488 198.502 70.1707 200.892 71.536C203.281 72.9013 205.137 74.7786 206.46 77.168C207.825 79.5147 208.507 82.1387 208.507 85.04C208.507 85.5093 208.486 86 208.444 86.512C208.444 87.024 208.422 87.5573 208.38 88.112H184.252C184.422 90.5867 185.276 92.528 186.812 93.936C188.39 95.344 190.289 96.048 192.507 96.048C194.171 96.048 195.558 95.6853 196.668 94.96C197.82 94.192 198.673 93.2107 199.228 92.016H207.548C206.95 94.0213 205.948 95.856 204.54 97.52C203.174 99.1413 201.468 100.421 199.42 101.36C197.414 102.299 195.132 102.768 192.572 102.768ZM192.635 76.144C190.63 76.144 188.86 76.72 187.324 77.872C185.788 78.9813 184.806 80.688 184.38 82.992H200.188C200.06 80.9013 199.291 79.2373 197.883 78C196.475 76.7627 194.726 76.144 192.635 76.144Z" fill="white"/>
<path d="M235.379 102C232.051 102 229.384 101.189 227.379 99.568C225.374 97.9467 224.371 95.0667 224.371 90.928V77.104H218.931V70.256H224.371L225.331 61.744H232.563V70.256H241.139V77.104H232.563V90.992C232.563 92.528 232.883 93.5947 233.523 94.192C234.206 94.7467 235.358 95.024 236.979 95.024H240.947V102H235.379Z" fill="white"/>
<path d="M268.992 102.768C265.92 102.768 263.147 102.064 260.672 100.656C258.24 99.248 256.299 97.3067 254.848 94.832C253.44 92.3147 252.736 89.4133 252.736 86.128C252.736 82.8426 253.461 79.9627 254.912 77.488C256.363 74.9706 258.304 73.008 260.736 71.6C263.211 70.192 265.984 69.488 269.056 69.488C272.085 69.488 274.816 70.192 277.248 71.6C279.723 73.008 281.664 74.9706 283.072 77.488C284.523 79.9627 285.248 82.8426 285.248 86.128C285.248 89.4133 284.523 92.3147 283.072 94.832C281.664 97.3067 279.723 99.248 277.248 100.656C274.773 102.064 272.021 102.768 268.992 102.768ZM268.992 95.664C271.125 95.664 272.981 94.8746 274.56 93.296C276.139 91.6746 276.928 89.2853 276.928 86.128C276.928 82.9706 276.139 80.6026 274.56 79.024C272.981 77.4027 271.147 76.592 269.056 76.592C266.88 76.592 265.003 77.4027 263.424 79.024C261.888 80.6026 261.12 82.9706 261.12 86.128C261.12 89.2853 261.888 91.6746 263.424 93.296C265.003 94.8746 266.859 95.664 268.992 95.664Z" fill="white"/>
<path d="M298.973 102V70.256H306.268L307.036 76.208C308.188 74.16 309.746 72.5386 311.708 71.344C313.714 70.1066 316.061 69.488 318.749 69.488V78.128H316.445C314.653 78.128 313.053 78.4053 311.645 78.96C310.237 79.5147 309.127 80.4747 308.316 81.84C307.548 83.2053 307.164 85.104 307.164 87.536V102H298.973Z" fill="white"/>
<path d="M334.715 116.08L342.075 99.888H340.155L327.803 70.256H336.699L345.595 92.592L354.876 70.256H363.579L343.419 116.08H334.715Z" fill="white"/>
<path d="M0 15.2133L25.3257 8.9139L54.3931 125.775L29.0674 132.075L0 15.2133Z" fill="#271E1E"/>
<path d="M61.7581 0L67.9853 25.3435L9.2271 39.7811L2.99991 14.4376L61.7581 0Z" fill="#271E1E"/>
<path d="M67.6438 41.2191L67.8215 67.3158L15.6148 67.6712L15.4371 41.5745L67.6438 41.2191Z" fill="#271E1E"/>
</svg>
